<svg width="43" height="43" viewBox="0 0 43 43" fill="none" xmlns="http://www.w3.org/2000/svg">
<path d="M8.0625 17.3847H9.32226C9.7861 17.3847 10.1621 17.0086 10.1621 16.5449V15.2852C10.1621 14.8214 9.7861 14.4454 9.32226 14.4454H8.0625C7.59857 14.4454 7.22266 14.8214 7.22266 15.2852V16.5449C7.22266 17.0086 7.59857 17.3847 8.0625 17.3847Z" fill="black"/>
<path d="M8.0625 22.4239H9.32226C9.7861 22.4239 10.1621 22.0478 10.1621 21.5841V20.3242C10.1621 19.8603 9.7861 19.4843 9.32226 19.4843H8.0625C7.59857 19.4843 7.22266 19.8603 7.22266 20.3242V21.5841C7.22266 22.0478 7.59857 22.4239 8.0625 22.4239Z" fill="black"/>
<path d="M8.0625 27.4627H9.32226C9.7861 27.4627 10.1621 27.0867 10.1621 26.6229V25.3632C10.1621 24.8995 9.7861 24.5234 9.32226 24.5234H8.0625C7.59857 24.5234 7.22266 24.8995 7.22266 25.3632V26.6229C7.22266 27.0867 7.59857 27.4627 8.0625 27.4627Z" fill="black"/>
<path d="M8.0625 32.5016H9.32226C9.7861 32.5016 10.1621 32.1255 10.1621 31.6618V30.4022C10.1621 29.9384 9.7861 29.5623 9.32226 29.5623H8.0625C7.59857 29.5623 7.22266 29.9384 7.22266 30.4022V31.6618C7.22266 32.1255 7.59857 32.5016 8.0625 32.5016Z" fill="black"/>
<path d="M12.4717 17.3847H13.7315C14.1953 17.3847 14.5714 17.0086 14.5714 16.5449V15.2852C14.5714 14.8214 14.1953 14.4454 13.7315 14.4454H12.4717C12.0078 14.4454 11.6318 14.8214 11.6318 15.2852V16.5449C11.6318 17.0086 12.0078 17.3847 12.4717 17.3847Z" fill="black"/>
<path d="M12.4717 22.4239H13.7315C14.1953 22.4239 14.5714 22.0478 14.5714 21.5841V20.3242C14.5714 19.8603 14.1953 19.4843 13.7315 19.4843H12.4717C12.0078 19.4843 11.6318 19.8603 11.6318 20.3242V21.5841C11.6318 22.0478 12.0078 22.4239 12.4717 22.4239Z" fill="black"/>
<path d="M12.4717 27.4627H13.7315C14.1953 27.4627 14.5714 27.0867 14.5714 26.6229V25.3632C14.5714 24.8995 14.1953 24.5234 13.7315 24.5234H12.4717C12.0078 24.5234 11.6318 24.8995 11.6318 25.3632V26.6229C11.6318 27.0867 12.0078 27.4627 12.4717 27.4627Z" fill="black"/>
<path d="M12.4717 32.5016H13.7315C14.1953 32.5016 14.5714 32.1255 14.5714 31.6618V30.4022C14.5714 29.9384 14.1953 29.5623 13.7315 29.5623H12.4717C12.0078 29.5623 11.6318 29.9384 11.6318 30.4022V31.6618C11.6318 32.1255 12.0078 32.5016 12.4717 32.5016Z" fill="black"/>
<path d="M16.8809 17.3847H18.1407C18.6045 17.3847 18.9805 17.0086 18.9805 16.5449V15.2852C18.9805 14.8214 18.6045 14.4454 18.1407 14.4454H16.8809C16.4171 14.4454 16.041 14.8214 16.041 15.2852V16.5449C16.041 17.0086 16.417 17.3847 16.8809 17.3847Z" fill="black"/>
<path d="M16.8809 22.4239H18.1407C18.6045 22.4239 18.9805 22.0478 18.9805 21.5841V20.3242C18.9805 19.8603 18.6045 19.4843 18.1407 19.4843H16.8809C16.4171 19.4843 16.041 19.8603 16.041 20.3242V21.5841C16.041 22.0478 16.417 22.4239 16.8809 22.4239Z" fill="black"/>
<path d="M16.8809 27.4627H18.1407C18.6045 27.4627 18.9805 27.0867 18.9805 26.6229V25.3632C18.9805 24.8995 18.6045 24.5234 18.1407 24.5234H16.8809C16.4171 24.5234 16.041 24.8995 16.041 25.3632V26.6229C16.041 27.0867 16.417 27.4627 16.8809 27.4627Z" fill="black"/>
<path d="M16.8809 32.5016H18.1407C18.6045 32.5016 18.9805 32.1255 18.9805 31.6618V30.4022C18.9805 29.9384 18.6045 29.5623 18.1407 29.5623H16.8809C16.4171 29.5623 16.041 29.9384 16.041 30.4022V31.6618C16.041 32.1255 16.417 32.5016 16.8809 32.5016Z" fill="black"/>
<path d="M24.8592 17.3847H26.119C26.5829 17.3847 26.9588 17.0086 26.9588 16.5449V15.2852C26.9588 14.8214 26.5829 14.4454 26.119 14.4454H24.8592C24.3953 14.4454 24.0194 14.8214 24.0194 15.2852V16.5449C24.0194 17.0086 24.3953 17.3847 24.8592 17.3847Z" fill="black"/>
<path d="M24.8592 12.3459H26.119C26.5829 12.3459 26.9588 11.9698 26.9588 11.5061V10.2465C26.9588 9.78271 26.5829 9.40663 26.119 9.40663H24.8592C24.3953 9.40663 24.0194 9.78271 24.0194 10.2465V11.5061C24.0194 11.9698 24.3953 12.3459 24.8592 12.3459Z" fill="black"/>
<path d="M24.8592 7.30716H26.119C26.5829 7.30716 26.9588 6.93107 26.9588 6.46731V5.2073C26.9588 4.74354 26.5829 4.36746 26.119 4.36746H24.8592C24.3953 4.36746 24.0194 4.74354 24.0194 5.2073V6.46731C24.0194 6.93107 24.3953 7.30716 24.8592 7.30716Z" fill="black"/>
<path d="M24.8592 22.4239H26.119C26.5829 22.4239 26.9588 22.0478 26.9588 21.5841V20.3242C26.9588 19.8603 26.5829 19.4843 26.119 19.4843H24.8592C24.3953 19.4843 24.0194 19.8603 24.0194 20.3242V21.5841C24.0194 22.0478 24.3953 22.4239 24.8592 22.4239Z" fill="black"/>
<path d="M24.8592 27.4627H26.119C26.5829 27.4627 26.9588 27.0867 26.9588 26.6229V25.3632C26.9588 24.8995 26.5829 24.5234 26.119 24.5234H24.8592C24.3953 24.5234 24.0194 24.8995 24.0194 25.3632V26.6229C24.0194 27.0867 24.3953 27.4627 24.8592 27.4627Z" fill="black"/>
<path d="M24.8592 32.5016H26.119C26.5829 32.5016 26.9588 32.1255 26.9588 31.6618V30.4022C26.9588 29.9384 26.5829 29.5623 26.119 29.5623H24.8592C24.3953 29.5623 24.0194 29.9384 24.0194 30.4022V31.6618C24.0194 32.1255 24.3953 32.5016 24.8592 32.5016Z" fill="black"/>
<path d="M29.2686 17.3847H30.5283C30.9922 17.3847 31.3682 17.0086 31.3682 16.5449V15.2852C31.3682 14.8214 30.9922 14.4454 30.5283 14.4454H29.2686C28.8048 14.4454 28.4287 14.8214 28.4287 15.2852V16.5449C28.4287 17.0086 28.8048 17.3847 29.2686 17.3847Z" fill="black"/>
<path d="M29.2686 12.3459H30.5283C30.9922 12.3459 31.3682 11.9698 31.3682 11.5061V10.2465C31.3682 9.78271 30.9922 9.40663 30.5283 9.40663H29.2686C28.8048 9.40663 28.4287 9.78271 28.4287 10.2465V11.5061C28.4287 11.9698 28.8048 12.3459 29.2686 12.3459Z" fill="black"/>
<path d="M29.2686 7.30716H30.5283C30.9922 7.30716 31.3682 6.93107 31.3682 6.46731V5.2073C31.3682 4.74354 30.9922 4.36746 30.5283 4.36746H29.2686C28.8048 4.36746 28.4287 4.74354 28.4287 5.2073V6.46731C28.4287 6.93107 28.8048 7.30716 29.2686 7.30716Z" fill="black"/>
<path d="M29.2686 22.4239H30.5283C30.9922 22.4239 31.3682 22.0478 31.3682 21.5841V20.3242C31.3682 19.8603 30.9922 19.4843 30.5283 19.4843H29.2686C28.8048 19.4843 28.4287 19.8603 28.4287 20.3242V21.5841C28.4287 22.0478 28.8048 22.4239 29.2686 22.4239Z" fill="black"/>
<path d="M29.2686 27.4627H30.5283C30.9922 27.4627 31.3682 27.0867 31.3682 26.6229V25.3632C31.3682 24.8995 30.9922 24.5234 30.5283 24.5234H29.2686C28.8048 24.5234 28.4287 24.8995 28.4287 25.3632V26.6229C28.4287 27.0867 28.8048 27.4627 29.2686 27.4627Z" fill="black"/>
<path d="M29.2686 32.5016H30.5283C30.9922 32.5016 31.3682 32.1255 31.3682 31.6618V30.4022C31.3682 29.9384 30.9922 29.5623 30.5283 29.5623H29.2686C28.8048 29.5623 28.4287 29.9384 28.4287 30.4022V31.6618C28.4287 32.1255 28.8048 32.5016 29.2686 32.5016Z" fill="black"/>
<path d="M33.6777 17.3847H34.9374C35.4012 17.3847 35.7772 17.0086 35.7772 16.5449V15.2852C35.7772 14.8214 35.4012 14.4454 34.9374 14.4454H33.6777C33.214 14.4454 32.8379 14.8214 32.8379 15.2852V16.5449C32.8379 17.0086 33.214 17.3847 33.6777 17.3847Z" fill="black"/>
<path d="M33.6777 12.3459H34.9374C35.4012 12.3459 35.7772 11.9698 35.7772 11.5061V10.2465C35.7772 9.78271 35.4012 9.40663 34.9374 9.40663H33.6777C33.214 9.40663 32.8379 9.78271 32.8379 10.2465V11.5061C32.8379 11.9698 33.214 12.3459 33.6777 12.3459Z" fill="black"/>
<path d="M33.6777 7.30716H34.9374C35.4012 7.30716 35.7772 6.93107 35.7772 6.46731V5.2073C35.7772 4.74354 35.4012 4.36746 34.9374 4.36746H33.6777C33.214 4.36746 32.8379 4.74354 32.8379 5.2073V6.46731C32.8379 6.93107 33.214 7.30716 33.6777 7.30716Z" fill="black"/>
<path d="M33.6777 22.4239H34.9374C35.4012 22.4239 35.7772 22.0478 35.7772 21.5841V20.3242C35.7772 19.8603 35.4012 19.4843 34.9374 19.4843H33.6777C33.214 19.4843 32.8379 19.8603 32.8379 20.3242V21.5841C32.8379 22.0478 33.214 22.4239 33.6777 22.4239Z" fill="black"/>
<path d="M33.6777 27.4627H34.9374C35.4012 27.4627 35.7772 27.0867 35.7772 26.6229V25.3632C35.7772 24.8995 35.4012 24.5234 34.9374 24.5234H33.6777C33.214 24.5234 32.8379 24.8995 32.8379 25.3632V26.6229C32.8379 27.0867 33.214 27.4627 33.6777 27.4627Z" fill="black"/>
<path d="M33.6777 32.5016H34.9374C35.4012 32.5016 35.7772 32.1255 35.7772 31.6618V30.4022C35.7772 29.9384 35.4012 29.5623 34.9374 29.5623H33.6777C33.214 29.5623 32.8379 29.9384 32.8379 30.4022V31.6618C32.8379 32.1255 33.214 32.5016 33.6777 32.5016Z" fill="black"/>
<path d="M9.72241 37.961C9.25856 37.961 8.88257 38.3371 8.88257 38.8008C8.88257 39.2647 9.25856 39.6407 9.72241 39.6407H9.74223C10.206 39.6407 10.5821 39.2647 10.5821 38.8008C10.5821 38.337 10.206 37.961 9.74223 37.961H9.72241Z" fill="black"/>
<path d="M26.5193 37.961C26.0554 37.961 25.6794 38.3371 25.6794 38.8008C25.6794 39.2647 26.0554 39.6407 26.5193 39.6407H26.539C27.0028 39.6407 27.3789 39.2647 27.3789 38.8008C27.3789 38.3371 27.0028 37.961 26.539 37.961H26.5193Z" fill="black"/>
<path d="M0.859661 41.3203H0.83984C0.375913 41.3203 0 41.6963 0 42.1601C0 42.6238 0.375913 42.9999 0.83984 42.9999H0.859661C1.32342 42.9999 1.6995 42.6238 1.6995 42.1601C1.6995 41.6962 1.3235 41.3203 0.859661 41.3203Z" fill="black"/>
<path d="M42.1604 41.3203H42.1404C41.6765 41.3203 41.3005 41.6963 41.3005 42.1601C41.3005 42.6238 41.6765 42.9999 42.1404 42.9999H42.1604C42.6242 42.9999 43.0002 42.6238 43.0002 42.1601C43.0002 41.6962 42.6241 41.3203 42.1604 41.3203Z" fill="black"/>
<path d="M39.7274 41.3202H39.1364V0.839886C39.1364 0.376042 38.7603 4.57764e-05 38.2966 4.57764e-05H21.5C21.0361 4.57764e-05 20.6602 0.376042 20.6602 0.839886V11.0862H4.7032C4.23927 11.0862 3.86336 11.4623 3.86336 11.926V41.3202H3.2727C2.80886 41.3202 2.43286 41.6963 2.43286 42.16C2.43286 42.6238 2.80886 42.9999 3.2727 42.9999H4.7032H13.1016H18.1408H21.5H29.8984H34.9374H38.2966H38.2966H38.2968H39.7274C40.1912 42.9999 40.5672 42.6238 40.5672 42.16C40.5672 41.6962 40.1912 41.3202 39.7274 41.3202ZM17.301 41.3202H13.9414V37.9611H17.301V41.3202ZM20.6602 41.3202H18.9807V37.1212C18.9807 36.6575 18.6047 36.2814 18.1408 36.2814H13.1016C12.6377 36.2814 12.2618 36.6575 12.2618 37.1212V41.3202H5.54304V39.6407H7.30956C7.77332 39.6407 8.1494 39.2647 8.1494 38.8008C8.1494 38.3371 7.77332 37.961 7.30956 37.961H5.54304V12.7659H20.6602V41.3202ZM34.0975 41.3202H30.7383V37.9611H34.0975V41.3202ZM37.4567 41.3202H35.7772V37.1212C35.7772 36.6575 35.4011 36.2814 34.9374 36.2814H29.8984C29.4346 36.2814 29.0586 36.6575 29.0586 37.1212V41.3202H22.3399V39.6407H24.1063C24.5701 39.6407 24.9461 39.2647 24.9461 38.8008C24.9461 38.3371 24.5701 37.961 24.1063 37.961H22.3399V11.926V1.67973H37.4567V41.3202Z" fill="black"/>
</svg>
