<svg width="22" height="22" viewBox="0 0 22 22" fill="none" xmlns="http://www.w3.org/2000/svg">
<path d="M11 0C4.92461 0 0 4.92461 0 11C0 17.0754 4.92461 22 11 22C17.0754 22 22 17.0754 22 11C22 4.92461 17.0754 0 11 0ZM11 20.2812C5.87396 20.2812 1.71875 16.126 1.71875 11C1.71875 5.87396 5.87396 1.71875 11 1.71875C16.126 1.71875 20.2812 5.87396 20.2812 11C20.2812 16.126 16.126 20.2812 11 20.2812Z" fill="white"/>
<path d="M13.5714 8.52324C13.5788 8.47559 13.5822 8.43124 13.5822 8.39029C13.5822 8.0123 13.3458 7.82431 12.8732 7.82431C12.6463 7.82431 12.4932 7.86324 12.4139 7.93981C12.3334 8.01767 12.2783 8.17145 12.2461 8.40172C12.0648 8.14657 11.8822 7.9747 11.6982 7.88541C11.529 7.80416 11.2867 7.76389 10.9731 7.76389C10.1655 7.76389 9.46455 8.17476 8.87305 8.99589C8.32786 9.7512 8.05595 10.5582 8.05595 11.4163C8.05595 12.0863 8.23251 12.6744 8.58636 13.182C8.97845 13.7413 9.49137 14.0206 10.1232 14.0206C10.6643 14.0206 11.184 13.8266 11.6815 13.4385C11.9058 13.8266 12.2891 14.0206 12.8302 14.0206C13.8548 14.0206 14.7323 13.5883 15.4607 12.7228C16.1536 11.8997 16.5 10.953 16.5 9.88414C16.5 8.60582 15.9622 7.53968 14.8867 6.68632C13.8903 5.89613 12.751 5.5 11.466 5.5C9.79421 5.5 8.39102 6.02839 7.25433 7.0858C6.08476 8.17614 5.5 9.56725 5.5 11.2605C5.5 12.9907 6.09954 14.3193 7.2973 15.2471C8.37285 16.0831 9.78347 16.5 11.5304 16.5C12.2743 16.5 12.9994 16.3839 13.707 16.1502C14.4831 15.8957 15.1216 15.5332 15.6232 15.0632C15.785 14.9081 15.9408 14.7195 16.0884 14.4979C16.2731 14.2273 16.3644 14.0091 16.3644 13.8433C16.3644 13.7178 16.3207 13.6057 16.2321 13.507C16.1442 13.409 16.0381 13.3599 15.916 13.3599C15.6843 13.3599 15.4896 13.4418 15.3305 13.6036C15.068 13.8856 14.8726 14.1005 14.7464 14.2482C13.887 14.9988 12.8195 15.3741 11.5411 15.3741C10.1702 15.3741 9.07311 15.0377 8.25069 14.365C7.3517 13.6299 6.90254 12.5764 6.90254 11.2055C6.90254 9.87482 7.32957 8.763 8.18555 7.87007C9.04088 6.97774 10.1185 6.53125 11.4169 6.53125C12.4388 6.53125 13.2881 6.82129 13.9662 7.4027C14.6926 8.01904 15.0545 8.83949 15.0545 9.86266C15.0545 10.3984 14.9632 10.8979 14.7785 11.3592C14.5731 11.8768 14.2749 12.2756 13.8856 12.5562C13.5929 12.7664 13.3639 12.8718 13.1981 12.8718C13.0175 12.8718 12.9275 12.7872 12.9275 12.6173C12.9275 12.5468 12.9739 12.2219 13.0685 11.6411L13.5714 8.52324ZM11.4874 11.5834C11.1551 12.5052 10.8013 12.9665 10.4266 12.9665C9.8667 12.9665 9.58671 12.6094 9.58671 11.8943C9.58671 11.3391 9.74716 10.714 10.0694 10.0171C10.4447 9.19462 10.8717 8.78376 11.3518 8.78376C11.5506 8.78376 11.6982 8.89118 11.7956 9.10534C11.8748 9.26913 11.9145 9.46387 11.9145 9.68945C11.9144 10.1715 11.7727 10.8026 11.4874 11.5834Z" fill="white"/>
</svg>
