<svg width="22" height="22" viewBox="0 0 22 22" fill="none" xmlns="http://www.w3.org/2000/svg">
<path d="M11 1.375C16.3066 1.375 20.625 5.69336 20.625 11C20.625 16.3066 16.3066 20.625 11 20.625C5.69336 20.625 1.375 16.3066 1.375 11C1.375 5.69336 5.69336 1.375 11 1.375ZM11 0C4.92529 0 0 4.92529 0 11C0 17.0747 4.92529 22 11 22C17.0747 22 22 17.0747 22 11C22 4.92529 17.0747 0 11 0ZM17.1325 14.6779L17.0707 14.4899C16.9256 14.0575 16.4476 13.6064 16.0072 13.4855L14.3811 13.041C13.9407 12.9215 13.3123 13.0827 12.9887 13.4062L12.4006 13.9944C10.2629 13.4157 8.58576 11.7385 8.00834 9.60085L8.5965 9.0127C8.91877 8.69043 9.0799 8.06201 8.9604 7.62025L8.51722 5.99414C8.39773 5.55371 7.94385 5.07568 7.5115 4.93066L7.32617 4.86888C6.89245 4.72386 6.27344 4.87021 5.95117 5.19385L5.07031 6.07471C4.91322 6.23047 4.8125 6.6776 4.8125 6.67898C4.78294 9.47465 5.87868 12.1669 7.85525 14.1448C9.82644 16.116 12.5093 17.2104 15.2955 17.1862C15.3103 17.1862 15.7709 17.0882 15.928 16.931L16.8089 16.0502C17.1311 15.7292 17.2761 15.1102 17.1325 14.6779Z" fill="white"/>
</svg>
