<svg xmlns="http://www.w3.org/2000/svg" xmlns:xlink="http://www.w3.org/1999/xlink" width="29.24" height="29.24" viewBox="0 0 29.24 29.24">
  <defs>
    <linearGradient id="Degradado_sin_nombre_3" data-name="Degradado sin nombre 3" x1="24.96" y1="4.28" x2="4.28" y2="24.96" gradientUnits="userSpaceOnUse">
      <stop offset="0" stop-color="#ffe185"/>
      <stop offset="0.21" stop-color="#ffbb36"/>
      <stop offset="0.38" stop-color="#ff5176"/>
      <stop offset="0.52" stop-color="#f63395"/>
      <stop offset="0.74" stop-color="#a436d2"/>
      <stop offset="1" stop-color="#5f4eed"/>
    </linearGradient>
  </defs>
  <title>instagram</title>
  <g id="Layer_2" data-name="Layer 2">
    <g id="Layer_1-2" data-name="Layer 1">
      <circle cx="14.62" cy="14.62" r="14.62" fill="url(#Degradado_sin_nombre_3)"/>
      <g>
        <path d="M19.16,9.09a1,1,0,1,0,1,1A1,1,0,0,0,19.16,9.09Z" fill="#fff"/>
        <path d="M14.69,10.38a4.22,4.22,0,1,0,4.22,4.22A4.22,4.22,0,0,0,14.69,10.38Zm0,6.93A2.71,2.71,0,1,1,17.4,14.6,2.71,2.71,0,0,1,14.69,17.31Z" fill="#fff"/>
        <path d="M18,23.17H11.2A5.16,5.16,0,0,1,6.05,18V11.18A5.16,5.16,0,0,1,11.2,6H18a5.16,5.16,0,0,1,5.15,5.15V18A5.16,5.16,0,0,1,18,23.17ZM11.2,7.64a3.55,3.55,0,0,0-3.54,3.54V18a3.55,3.55,0,0,0,3.54,3.54H18A3.55,3.55,0,0,0,21.58,18V11.18A3.55,3.55,0,0,0,18,7.64Z" fill="#fff"/>
      </g>
    </g>
  </g>
</svg>
