<svg width="375" height="375" viewBox="0 0 375 375" fill="none" xmlns="http://www.w3.org/2000/svg">
<path d="M372.07 93.75C370.312 92.5781 367.969 91.9922 366.211 93.1641L246.68 135.938L162.891 105.469C167.578 93.75 169.922 83.2031 169.922 74.4141C169.922 58.5938 164.062 44.5313 152.93 33.3984C141.797 22.2656 127.148 16.4062 111.914 16.4062C79.6875 16.4062 53.9062 42.1875 53.9062 74.4141C53.9062 85.5469 58.0078 99.0235 65.0391 115.43L4.10156 135.938C1.75781 137.109 0 139.453 0 141.797V352.734C0 355.078 1.17187 356.836 2.92969 358.008C4.10156 358.594 5.27344 359.18 6.44531 359.18C7.03125 359.18 8.20312 359.18 8.78906 358.594L128.32 316.406L244.336 359.18C245.508 359.766 247.266 359.766 248.437 359.18L370.312 315.82C372.656 314.648 374.414 312.305 374.414 309.961V99.0234C375 96.6797 373.828 94.9219 372.07 93.75ZM111.914 28.125C124.219 28.125 135.352 32.8125 143.555 41.6016C152.344 49.8047 157.031 61.5234 157.031 73.2422C157.031 81.4453 154.102 92.5781 148.242 105.469C137.695 128.906 120.117 153.516 111.914 164.648C110.742 163.477 110.156 162.305 108.984 160.547C101.367 150 89.0625 132.422 80.2734 114.258C71.4844 97.2656 67.3828 83.2031 67.3828 72.6563C66.7969 48.6328 87.3047 28.125 111.914 28.125ZM362.109 305.273L246.68 346.289L130.664 303.516C130.078 303.516 128.906 302.93 128.32 302.93C127.734 302.93 126.562 302.93 125.977 303.516L12.8906 343.945V146.484L71.4844 125.977C71.4844 125.977 71.4844 125.977 71.4844 126.563C72.0703 127.148 72.0703 127.734 72.6562 128.32C73.2422 129.492 73.8281 130.664 74.4141 131.836C75 132.422 75 133.008 75.5859 133.594C76.1719 134.766 76.7578 135.938 77.3437 137.109C77.9297 137.695 77.9297 138.281 78.5156 138.867C79.1016 140.039 79.6875 141.211 80.2734 141.797C80.8594 142.383 80.8594 142.969 81.4453 143.555C82.0312 144.727 82.6172 145.313 83.2031 146.484C83.7891 147.07 83.7891 147.656 84.375 148.242C84.9609 149.414 85.5469 150 86.1328 151.172C86.7187 151.758 86.7187 152.344 87.3047 152.93C87.8906 154.102 88.4766 154.688 89.0625 155.859C89.6484 156.445 89.6484 157.031 90.2344 157.617C90.8203 158.789 91.4062 159.375 91.9922 160.547C92.5781 161.133 92.5781 161.719 93.1641 161.719C93.75 162.891 94.3359 163.477 94.9219 164.063C94.9219 164.648 95.5078 164.648 95.5078 165.234C96.0937 166.406 96.6797 166.992 97.2656 167.578L97.8516 168.164C98.4375 168.75 99.0234 169.922 99.6094 170.508L100.195 171.094C100.781 171.68 101.367 172.852 101.953 173.438C102.539 174.023 103.125 174.609 103.711 175.195C104.883 176.953 106.055 178.125 106.055 178.711C107.227 180.469 108.984 181.055 111.328 181.055C113.086 181.055 114.844 179.883 116.602 178.711C116.602 178.711 117.187 178.125 118.359 176.953L118.945 176.367C119.531 175.781 119.531 175.781 120.117 175.195L120.703 174.609C121.289 174.023 121.289 173.438 121.875 172.852C121.875 172.266 122.461 172.266 122.461 171.68C123.047 171.094 123.633 170.508 123.633 169.922C124.219 169.336 124.219 168.75 124.805 168.164C125.391 167.578 125.977 166.992 126.562 165.82C127.148 165.234 127.148 164.648 127.734 164.063C128.32 163.477 128.906 162.891 129.492 161.719C130.078 161.133 130.664 160.547 130.664 159.961C131.25 159.375 131.836 158.203 132.422 157.617C133.008 157.031 133.594 155.859 134.18 155.273C134.766 154.688 135.352 153.516 135.937 152.93C136.523 152.344 137.109 151.172 137.695 150.586C138.281 149.414 138.867 148.828 139.453 147.656C140.039 147.07 140.625 145.898 141.211 145.313C141.797 144.141 142.383 143.555 142.969 142.383C143.555 141.211 144.141 140.625 144.727 139.453C145.312 138.281 145.898 137.695 146.484 136.523C147.07 135.352 147.656 134.766 148.242 133.594C148.828 132.422 149.414 131.836 150 130.664C150.586 129.492 151.172 128.906 151.758 127.734C152.344 126.563 152.93 125.977 153.516 124.805C154.102 123.633 154.687 123.047 155.273 121.875C155.859 120.703 156.445 119.531 157.031 118.945C157.617 117.773 158.203 117.188 158.203 116.016C158.203 116.016 158.203 116.016 158.203 115.43L244.922 147.07C246.094 147.656 247.852 147.656 249.023 147.07L362.109 106.641V305.273V305.273Z" fill="#94CBE9"/>
<path d="M307.617 248.438C308.789 249.024 310.547 249.024 311.719 249.024C315.234 249.024 318.75 247.852 321.68 246.094C325.781 243.164 328.711 239.063 329.883 234.375C331.055 229.688 329.883 224.414 327.539 220.313C324.609 216.211 320.508 213.281 315.82 212.109C305.859 209.766 295.313 216.211 292.969 226.172C291.797 230.859 292.969 236.133 295.313 240.234C298.828 244.336 302.93 247.266 307.617 248.438ZM305.859 228.516C306.445 225 309.961 223.242 312.891 223.828C314.648 224.414 315.82 225 316.406 226.758C316.992 227.93 317.578 229.688 316.992 231.445C316.406 233.203 315.82 234.375 314.062 234.961C312.891 235.547 311.133 236.133 309.375 235.547C307.617 234.961 306.445 234.375 305.859 232.617C305.859 231.445 305.859 230.274 305.859 228.516Z" fill="#CDCDCD"/>
<path d="M64.4531 229.102L60.3515 231.445L58.0078 227.344C56.25 224.414 52.1484 223.242 49.2187 225.586C46.289 227.344 45.1172 231.445 47.4609 234.375L49.8047 238.477L45.7031 240.82C42.7734 242.578 41.6015 246.68 43.9453 249.609C44.5312 251.953 46.875 252.539 48.6328 252.539C49.8047 252.539 50.9765 251.953 52.1484 251.367L56.25 249.024L58.5937 253.125C59.7656 254.883 62.1094 256.055 63.8672 256.055C65.039 256.055 66.2109 255.469 67.3828 254.883C70.3125 253.125 71.4844 249.024 69.1406 246.094L66.7969 241.992L70.8984 239.649C73.8281 237.891 75 233.789 72.6562 230.859C71.4844 227.93 67.3828 227.344 64.4531 229.102Z" fill="#CDCDCD"/>
<path d="M124.805 246.68C117.188 246.68 107.227 245.508 100.781 243.75C97.2656 243.164 93.75 245.508 93.1641 249.023C92.5781 252.539 94.9219 256.055 98.4375 256.641C104.883 257.813 115.43 259.57 124.805 259.57C128.32 259.57 131.25 256.641 131.25 253.125C131.25 249.609 128.32 246.68 124.805 246.68Z" fill="#CDCDCD"/>
<path d="M172.852 224.414C168.75 230.273 164.063 234.961 158.203 238.477C156.445 239.648 154.102 240.82 151.758 241.992C148.242 243.164 147.07 247.266 148.242 250.781C149.414 253.125 151.758 254.883 154.102 254.883C154.687 254.883 155.859 254.883 156.445 254.297C159.375 253.125 161.719 251.953 164.063 250.195C171.094 245.508 176.953 240.234 182.227 233.203C184.57 230.273 183.984 226.172 181.055 224.414C179.297 220.898 175.195 221.484 172.852 224.414Z" fill="#CDCDCD"/>
<path d="M219.727 182.227C213.281 182.227 209.766 183.984 206.25 185.156C198.047 188.672 191.016 196.289 189.258 198.633C186.914 201.563 187.5 205.664 189.844 208.008C191.016 209.18 192.773 209.766 193.945 209.766C195.703 209.766 197.461 209.18 198.633 207.422C201.562 203.906 206.25 199.805 210.937 197.461C214.453 196.289 215.625 195.703 219.727 195.117C223.242 195.117 226.172 192.188 226.172 188.672C226.172 185.156 223.242 182.227 219.727 182.227Z" fill="#CDCDCD"/>
<path d="M243.75 192.188C242.578 195.703 243.75 199.219 247.266 200.977C253.711 203.906 263.086 208.594 270.117 213.867C271.289 214.453 272.461 215.039 273.633 215.039C275.977 215.039 277.734 213.867 278.906 212.109C280.664 209.18 280.078 205.078 277.148 203.32C268.945 198.047 259.57 192.774 251.953 189.844C249.023 187.5 245.508 189.258 243.75 192.188Z" fill="#CDCDCD"/>
<path d="M111.914 89.0625C123.047 89.0625 131.836 80.2734 131.836 69.1406C131.836 58.0078 123.047 49.2188 111.914 49.2188C100.781 49.2188 91.9922 58.0078 91.9922 69.1406C91.9922 80.2734 101.367 89.0625 111.914 89.0625ZM111.914 62.1094C115.43 62.1094 118.945 65.0391 118.945 69.1406C118.945 72.6562 116.016 76.1719 111.914 76.1719C108.398 76.1719 104.883 73.2422 104.883 69.1406C105.469 65.625 108.398 62.1094 111.914 62.1094Z" fill="#94CBE8"/>
</svg>
